<?xml version="1.0" encoding="utf-8"?>
<!DOCTYPE svg
  PUBLIC '-//W3C//DTD SVG 1.0//EN'
  'http://www.w3.org/TR/2001/REC-SVG-20010904/DTD/svg10.dtd'>
<svg fill-rule="evenodd" height="566.9291338582677" preserveAspectRatio="xMinYMin meet" version="1.0" viewBox="0 0 566 566" width="566.9291338582677" xmlns="http://www.w3.org/2000/svg" xmlns:xlink="http://www.w3.org/1999/xlink">
	<title>...</title>
	<desc>...</desc>
	<clipPath id="clip">
		<rect height="566.9291338582677" width="566.9291338582677" x="0" y="0"/>
	</clipPath>
	<g id="group" style="clip-path: url(#clip)" transform="scale(1,-1) translate(0,-566)">
		<g transform="">
			<path d="M 427.279303 445.764952 L 425.364963 447.441305 L 423.431086 449.095080 L 421.477936 450.726049 L 419.505782 452.333987 L 417.514897 453.918673 L 415.505554 455.479889 L 413.478030 457.017419 L 411.432605 458.531053 L 409.369559 460.020582 L 407.289177 461.485800 L 405.191745 462.926506 L 403.077552 464.342501 L 400.946890 465.733591 L 398.800051 467.099584 L 396.637331 468.440292 L 394.459028 469.755530 L 392.265443 471.045117 L 390.056876 472.308876 L 387.833632 473.546632 L 385.596017 474.758216 L 383.344340 475.943460 L 381.078910 477.102201 L 378.800039 478.234279 L 376.508042 479.339540 L 374.203233 480.417830 L 371.885930 481.469001 L 369.556452 482.492908 L 367.215120 483.489411 L 364.862256 484.458372 L 362.498184 485.399657 L 360.123230 486.313138 L 357.737720 487.198688 L 355.341984 488.056185 L 352.936351 488.885511 L 350.521152 489.686553 L 348.096720 490.459200 L 345.663389 491.203345 L 343.221493 491.918886 L 340.771369 492.605724 L 338.313354 493.263766 L 335.847788 493.892919 L 333.375008 494.493098 L 330.895356 495.064221 L 328.409174 495.606207 L 325.916802 496.118984 L 323.418586 496.602479 L 320.914868 497.056627 L 318.405993 497.481365 L 315.892308 497.876635 L 313.374157 498.242382 L 310.851888 498.578555 L 308.325848 498.885109 L 305.796385 499.162001 L 303.263846 499.409194 L 300.728582 499.626652 L 298.190941 499.814347 L 295.651271 499.972252 L 297.264217 528.627680 L 300.140019 528.448876 L 303.013525 528.236340 L 305.884339 527.990100 L 308.752066 527.710191 L 311.616312 527.396651 L 314.476681 527.049524 L 317.332779 526.668857 L 320.184215 526.254703 L 323.030594 525.807118 L 325.871525 525.326165 L 328.706618 524.811909 L 331.535481 524.264421 L 334.357725 523.683777 L 337.172961 523.070057 L 339.980802 522.423345 L 342.780861 521.743731 L 345.572753 521.031307 L 348.356093 520.286172 L 351.130498 519.508428 L 353.895585 518.698183 L 356.650976 517.855548 L 359.396288 516.980640 L 362.131146 516.073578 L 364.855172 515.134487 L 367.567991 514.163498 L 370.269229 513.160743 L 372.958516 512.126360 L 375.635479 511.060493 L 378.299752 509.963287 L 380.950966 508.834894 L 383.588757 507.675470 L 386.212762 506.485173 L 388.822619 505.264169 L 391.417970 504.012624 L 393.998456 502.730711 L 396.563722 501.418607 L 399.113415 500.076493 L 401.647185 498.704553 L 404.164681 497.302975 L 406.665558 495.871954 L 409.149472 494.411686 L 411.616079 492.922373 L 414.065041 491.404218 L 416.496020 489.857432 L 418.908682 488.282228 L 421.302695 486.678821 L 423.677728 485.047433 L 426.033455 483.388289 L 428.369551 481.701617 L 430.685695 479.987650 L 432.981567 478.246622 L 435.256853 476.478775 L 437.511237 474.684351 L 439.744411 472.863598 L 441.956066 471.016766 L 444.145898 469.144109 L 446.313606 467.245886 Z " style="stroke: rgb(0%,0%,100%); stroke-linecap: butt; stroke-width: 1; fill: rgb(0%,0%,100%);"/>
			<path d="M 488.161086 355.042695 L 487.509968 356.878242 L 486.842390 358.707867 L 486.158408 360.531422 L 485.458075 362.348761 L 484.741448 364.159737 L 484.008585 365.964204 L 483.259545 367.762016 L 482.494389 369.553027 L 481.713179 371.337095 L 480.915976 373.114074 L 480.102847 374.883822 L 479.273855 376.646196 L 478.429069 378.401053 L 477.568555 380.148252 L 476.692385 381.887652 L 475.800628 383.619112 L 474.893356 385.342494 L 473.970642 387.057658 L 473.032562 388.764466 L 472.079189 390.462779 L 471.110603 392.152462 L 470.126880 393.833377 L 469.128100 395.505389 L 468.114343 397.168364 L 467.085692 398.822167 L 466.042228 400.466664 L 464.984038 402.101724 L 463.911205 403.727214 L 462.823816 405.343002 L 461.721959 406.948960 L 460.605724 408.544956 L 459.475199 410.130863 L 458.330476 411.706553 L 457.171648 413.271898 L 455.998808 414.826772 L 454.812051 416.371049 L 453.611471 417.904606 L 452.397167 419.427319 L 451.169236 420.939064 L 449.927777 422.439719 L 448.672890 423.929164 L 447.404677 425.407279 L 446.123240 426.873944 L 444.828682 428.329040 L 443.521107 429.772452 L 442.200622 431.204061 L 440.867332 432.623753 L 439.521345 434.031413 L 438.162770 435.426928 L 436.791717 436.810184 L 435.408295 438.181072 L 434.012617 439.539478 L 432.604794 440.885296 L 431.184942 442.218415 L 429.753173 443.538728 L 428.309605 444.846128 L 426.854352 446.140511 L 445.832412 467.671151 L 447.480271 466.205453 L 449.114901 464.725013 L 450.736168 463.229953 L 452.343942 461.720392 L 453.938094 460.196452 L 455.518494 458.658256 L 457.085016 457.105928 L 458.637533 455.539593 L 460.175919 453.959378 L 461.700051 452.365410 L 463.209806 450.757818 L 464.705061 449.136730 L 466.185697 447.502279 L 467.651594 445.854596 L 469.102633 444.193814 L 470.538698 442.520067 L 471.959673 440.833489 L 473.365442 439.134217 L 474.755894 437.422389 L 476.130914 435.698141 L 477.490394 433.961613 L 478.834222 432.212946 L 480.162291 430.452280 L 481.474494 428.679757 L 482.770724 426.895520 L 484.050877 425.099714 L 485.314850 423.292482 L 486.562540 421.473972 L 487.793848 419.644329 L 489.008673 417.803700 L 490.206919 415.952236 L 491.388487 414.090084 L 492.553284 412.217396 L 493.701214 410.334322 L 494.832186 408.441014 L 495.946108 406.537624 L 497.042889 404.624307 L 498.122443 402.701217 L 499.184682 400.768508 L 500.229519 398.826338 L 501.256871 396.874861 L 502.266655 394.914236 L 503.258789 392.944622 L 504.233194 390.966176 L 505.189790 388.979058 L 506.128501 386.983429 L 507.049251 384.979450 L 507.951966 382.967283 L 508.836572 380.947088 L 509.702998 378.919031 L 510.551176 376.883273 L 511.381035 374.839980 L 512.192509 372.789317 L 512.985534 370.731448 L 513.760043 368.666539 L 514.515977 366.594758 L 515.253272 364.516271 Z " style="stroke: rgb(67%,84%,90%); stroke-linecap: butt; stroke-width: 1; fill: rgb(67%,84%,90%);"/>
			<path d="M 476.952496 185.553819 L 477.171013 185.986847 L 477.388561 186.420362 L 477.605139 186.854363 L 477.820745 187.288847 L 478.035379 187.723812 L 478.249040 188.159256 L 478.461726 188.595177 L 478.673437 189.031573 L 478.884171 189.468441 L 479.093927 189.905779 L 479.302704 190.343585 L 479.510502 190.781858 L 479.717319 191.220594 L 479.923154 191.659791 L 480.128006 192.099448 L 480.331874 192.539562 L 480.534758 192.980131 L 480.736655 193.421152 L 480.937565 193.862624 L 481.137488 194.304545 L 481.336421 194.746911 L 481.534365 195.189721 L 481.731317 195.632973 L 481.927278 196.076664 L 482.122246 196.520793 L 482.316220 196.965356 L 482.509199 197.410352 L 482.701182 197.855779 L 482.892168 198.301634 L 483.082157 198.747915 L 483.271147 199.194620 L 483.459137 199.641747 L 483.646127 200.089293 L 483.832115 200.537256 L 484.017101 200.985634 L 484.201083 201.434424 L 484.384061 201.883625 L 484.566034 202.333234 L 484.747001 202.783249 L 484.926961 203.233668 L 485.105913 203.684488 L 485.283856 204.135707 L 485.460789 204.587323 L 485.636712 205.039334 L 485.811623 205.491737 L 485.985522 205.944530 L 486.158408 206.397711 L 486.330279 206.851278 L 486.501136 207.305228 L 486.670977 207.759559 L 486.839801 208.214268 L 487.007608 208.669355 L 487.174396 209.124815 L 487.340165 209.580647 L 487.504915 210.036849 L 487.668643 210.493418 L 487.831350 210.950353 L 514.879895 201.352883 L 514.695653 200.835472 L 514.510255 200.318475 L 514.323700 199.801893 L 514.135991 199.285730 L 513.947128 198.769988 L 513.757111 198.254670 L 513.565943 197.739778 L 513.373623 197.225315 L 513.180153 196.711284 L 512.985534 196.197686 L 512.789766 195.684525 L 512.592851 195.171804 L 512.394790 194.659524 L 512.195583 194.147688 L 511.995232 193.636299 L 511.793738 193.125360 L 511.591101 192.614872 L 511.387323 192.104840 L 511.182405 191.595264 L 510.976347 191.086147 L 510.769151 190.577493 L 510.560818 190.069304 L 510.351349 189.561582 L 510.140745 189.054330 L 509.929007 188.547550 L 509.716135 188.041245 L 509.502132 187.535417 L 509.286998 187.030069 L 509.070734 186.525204 L 508.853341 186.020824 L 508.634821 185.516931 L 508.415174 185.013528 L 508.194402 184.510618 L 507.972505 184.008203 L 507.749485 183.506286 L 507.525343 183.004868 L 507.300080 182.503953 L 507.073698 182.003544 L 506.846196 181.503641 L 506.617577 181.004249 L 506.387841 180.505370 L 506.156991 180.007006 L 505.925026 179.509159 L 505.691948 179.011833 L 505.457758 178.515029 L 505.222458 178.018750 L 504.986048 177.522998 L 504.748530 177.027777 L 504.509905 176.533088 L 504.270174 176.038934 L 504.029338 175.545318 L 503.787399 175.052241 L 503.544357 174.559707 L 503.300215 174.067718 L 503.054972 173.576276 L 502.808631 173.085384 L 502.561193 172.595044 Z " style="stroke: rgb(0%,0%,100%); stroke-linecap: butt; stroke-width: 1; fill: rgb(0%,0%,100%);"/>
			<path d="M 409.430307 106.951888 L 410.182341 107.490992 L 410.932067 108.033299 L 411.679473 108.578801 L 412.424544 109.127487 L 413.167268 109.679347 L 413.907630 110.234371 L 414.645616 110.792550 L 415.381215 111.353872 L 416.114411 111.918328 L 416.845192 112.485907 L 417.573545 113.056600 L 418.299456 113.630395 L 419.022912 114.207282 L 419.743900 114.787251 L 420.462406 115.370292 L 421.178418 115.956393 L 421.891923 116.545543 L 422.602907 117.137733 L 423.311358 117.732952 L 424.017263 118.331188 L 424.720608 118.932430 L 425.421382 119.536668 L 426.119571 120.143891 L 426.815162 120.754088 L 427.508144 121.367247 L 428.198503 121.983357 L 428.886226 122.602408 L 429.571302 123.224388 L 430.253718 123.849285 L 430.933461 124.477088 L 431.610519 125.107786 L 432.284880 125.741367 L 432.956531 126.377820 L 433.625460 127.017133 L 434.291655 127.659295 L 434.955104 128.304294 L 435.615795 128.952117 L 436.273715 129.602754 L 436.928853 130.256192 L 437.581197 130.912420 L 438.230735 131.571425 L 438.877455 132.233196 L 439.521345 132.897721 L 440.162394 133.564987 L 440.800590 134.234982 L 441.435921 134.907694 L 442.068376 135.583111 L 442.697943 136.261221 L 443.324611 136.942011 L 443.948369 137.625468 L 444.569204 138.311581 L 445.187106 139.000337 L 445.802063 139.691724 L 446.414065 140.385727 L 447.023100 141.082337 L 447.629157 141.781538 L 448.232225 142.483319 L 470.039709 123.824036 L 469.356823 123.029372 L 468.670553 122.237630 L 467.980910 121.448822 L 467.287909 120.662965 L 466.591560 119.880072 L 465.891876 119.100157 L 465.188872 118.323235 L 464.482558 117.549320 L 463.772949 116.778425 L 463.060057 116.010566 L 462.343895 115.245755 L 461.624476 114.484007 L 460.901813 113.725336 L 460.175919 112.969756 L 459.446808 112.217280 L 458.714493 111.467921 L 457.978986 110.721695 L 457.240303 109.978613 L 456.498455 109.238690 L 455.753457 108.501940 L 455.005322 107.768375 L 454.254064 107.038009 L 453.499696 106.310855 L 452.742232 105.586927 L 451.981686 104.866238 L 451.218072 104.148800 L 450.451403 103.434627 L 449.681694 102.723733 L 448.908959 102.016128 L 448.133211 101.311828 L 447.354465 100.610844 L 446.572735 99.913190 L 445.788035 99.218877 L 445.000380 98.527919 L 444.209784 97.840329 L 443.416261 97.156118 L 442.619825 96.475299 L 441.820492 95.797885 L 441.018276 95.123888 L 440.213190 94.453320 L 439.405251 93.786193 L 438.594473 93.122520 L 437.780870 92.462313 L 436.964457 91.805583 L 436.145250 91.152343 L 435.323263 90.502604 L 434.498510 89.856379 L 433.671008 89.213679 L 432.840771 88.574515 L 432.007814 87.938900 L 431.172153 87.306845 L 430.333802 86.678362 L 429.492777 86.053462 L 428.649093 85.432156 L 427.802766 84.814455 L 426.953811 84.200372 L 426.102243 83.589916 Z " style="stroke: rgb(67%,84%,90%); stroke-linecap: butt; stroke-width: 1; fill: rgb(67%,84%,90%);"/>
			<path d="M 287.008923 66.643141 L 288.098200 66.663684 L 289.187360 66.689700 L 290.276375 66.721188 L 291.365219 66.758146 L 292.453863 66.800574 L 293.542280 66.848471 L 294.630443 66.901836 L 295.718324 66.960667 L 296.805895 67.024963 L 297.893130 67.094722 L 298.980001 67.169943 L 300.066480 67.250623 L 301.152540 67.336760 L 302.238154 67.428353 L 303.323293 67.525399 L 304.407932 67.627896 L 305.492042 67.735840 L 306.575595 67.849230 L 307.658566 67.968062 L 308.740926 68.092333 L 309.822647 68.222041 L 310.903704 68.357182 L 311.984068 68.497752 L 313.063712 68.643749 L 314.142609 68.795168 L 315.220731 68.952005 L 316.298052 69.114257 L 317.374544 69.281919 L 318.450180 69.454987 L 319.524934 69.633458 L 320.598777 69.817326 L 321.671682 70.006586 L 322.743624 70.201235 L 323.814573 70.401266 L 324.884505 70.606675 L 325.953391 70.817458 L 327.021204 71.033607 L 328.087918 71.255119 L 329.153505 71.481987 L 330.217940 71.714206 L 331.281194 71.951770 L 332.343241 72.194672 L 333.404055 72.442907 L 334.463608 72.696469 L 335.521874 72.955351 L 336.578825 73.219546 L 337.634436 73.489048 L 338.688680 73.763850 L 339.741530 74.043945 L 340.792959 74.329327 L 341.842941 74.619987 L 342.891450 74.915918 L 343.938459 75.217114 L 344.983941 75.523566 L 346.027871 75.835267 L 347.070221 76.152208 L 348.110966 76.474383 L 356.667107 49.078623 L 355.488616 48.713808 L 354.308308 48.354918 L 353.126211 48.001963 L 351.942356 47.654951 L 350.756773 47.313891 L 349.569491 46.978792 L 348.380541 46.649663 L 347.189951 46.326510 L 345.997754 46.009344 L 344.803978 45.698171 L 343.608654 45.392999 L 342.411811 45.093837 L 341.213481 44.800691 L 340.013693 44.513570 L 338.812478 44.232480 L 337.609865 43.957429 L 336.405886 43.688423 L 335.200571 43.425469 L 333.993950 43.168574 L 332.786053 42.917745 L 331.576911 42.672987 L 330.366555 42.434307 L 329.155015 42.201711 L 327.942322 41.975205 L 326.728506 41.754795 L 325.513599 41.540485 L 324.297629 41.332282 L 323.080629 41.130190 L 321.862629 40.934216 L 320.643660 40.744363 L 319.423753 40.560636 L 318.202938 40.383041 L 316.981246 40.211582 L 315.758708 40.046262 L 314.535354 39.887087 L 313.311217 39.734060 L 312.086326 39.587185 L 310.860713 39.446466 L 309.634408 39.311906 L 308.407443 39.183509 L 307.179848 39.061277 L 305.951654 38.945215 L 304.722893 38.835325 L 303.493595 38.731609 L 302.263792 38.634071 L 301.033514 38.542713 L 299.802793 38.457537 L 298.571660 38.378545 L 297.340145 38.305739 L 296.108279 38.239122 L 294.876095 38.178694 L 293.643623 38.124457 L 292.410893 38.076414 L 291.177938 38.034564 L 289.944788 37.998909 L 288.711475 37.969450 L 287.478029 37.946187 Z " style="stroke: rgb(0%,0%,100%); stroke-linecap: butt; stroke-width: 1; fill: rgb(0%,0%,100%);"/>
			<path d="M 161.095873 140.544389 L 162.865791 139.047776 L 164.654010 137.573080 L 166.460261 136.120525 L 168.284268 134.690332 L 170.125756 133.282716 L 171.984444 131.897893 L 173.860051 130.536073 L 175.752292 129.197461 L 177.660879 127.882261 L 179.585524 126.590673 L 181.525933 125.322892 L 183.481813 124.079112 L 185.452867 122.859520 L 187.438796 121.664302 L 189.439297 120.493640 L 191.454069 119.347711 L 193.482803 118.226688 L 195.525194 117.130743 L 197.580931 116.060041 L 199.649702 115.014744 L 201.731193 113.995012 L 203.825088 113.001000 L 205.931069 112.032857 L 208.048817 111.090732 L 210.178010 110.174766 L 212.318326 109.285100 L 214.469439 108.421867 L 216.631023 107.585200 L 218.802749 106.775225 L 220.984289 105.992064 L 223.175311 105.235837 L 225.375483 104.506659 L 227.584471 103.804640 L 229.801939 103.129887 L 232.027551 102.482502 L 234.260970 101.862584 L 236.501855 101.270225 L 238.749868 100.705518 L 241.004667 100.168546 L 243.265910 99.659392 L 245.533254 99.178133 L 247.806354 98.724841 L 250.084866 98.299587 L 252.368443 97.902433 L 254.656740 97.533441 L 256.949408 97.192667 L 259.246101 96.880162 L 261.546469 96.595973 L 263.850164 96.340144 L 266.156835 96.112714 L 268.466133 95.913717 L 270.777707 95.743183 L 273.091207 95.601138 L 275.406281 95.487605 L 277.722578 95.402599 L 280.039746 95.346134 L 282.357434 95.318218 L 282.188549 66.617928 L 279.517316 66.650101 L 276.846681 66.715180 L 274.177051 66.813153 L 271.508830 66.944005 L 268.842424 67.107718 L 266.178237 67.304265 L 263.516673 67.533618 L 260.858136 67.795741 L 258.203031 68.090594 L 255.551759 68.418134 L 252.904723 68.778309 L 250.262325 69.171066 L 247.624966 69.596345 L 244.993047 70.054081 L 242.366965 70.544205 L 239.747121 71.066643 L 237.133912 71.621314 L 234.527734 72.208136 L 231.928982 72.827019 L 229.338052 73.477868 L 226.755336 74.160586 L 224.181227 74.875069 L 221.616115 75.621207 L 219.060389 76.398889 L 216.514437 77.207995 L 213.978645 78.048404 L 211.453399 78.919987 L 208.939082 79.822613 L 206.436075 80.756144 L 203.944758 81.720439 L 201.465509 82.715351 L 198.998705 83.740729 L 196.544720 84.796418 L 194.103925 85.882258 L 191.676693 86.998083 L 189.263390 88.143724 L 186.864384 89.319009 L 184.480038 90.523757 L 182.110714 91.757786 L 179.756772 93.020910 L 177.418569 94.312936 L 175.096460 95.633668 L 172.790797 96.982906 L 170.501930 98.360445 L 168.230207 99.766076 L 165.975972 101.199586 L 163.739568 102.660757 L 161.521333 104.149367 L 159.321605 105.665190 L 157.140718 107.207997 L 154.979001 108.777553 L 152.836784 110.373621 L 150.714392 111.995957 L 148.612146 113.644315 L 146.530366 115.318447 L 144.469367 117.018096 L 142.429463 118.743006 Z " style="stroke: rgb(67%,84%,90%); stroke-linecap: butt; stroke-width: 1; fill: rgb(67%,84%,90%);"/>
			<path d="M 94.658784 176.804032 L 95.171120 175.902161 L 95.687763 175.002752 L 96.208703 174.105824 L 96.733927 173.211398 L 97.263423 172.319494 L 97.797179 171.430133 L 98.335183 170.543336 L 98.877422 169.659122 L 99.423885 168.777512 L 99.974558 167.898525 L 100.529430 167.022183 L 101.088486 166.148505 L 101.651715 165.277511 L 102.219104 164.409220 L 102.790640 163.543654 L 103.366309 162.680831 L 103.946099 161.820772 L 104.529996 160.963496 L 105.117986 160.109022 L 105.710057 159.257371 L 106.306195 158.408561 L 106.906386 157.562613 L 107.510616 156.719545 L 108.118873 155.879377 L 108.731140 155.042128 L 109.347406 154.207817 L 109.967655 153.376463 L 110.591873 152.548085 L 111.220047 151.722703 L 111.852162 150.900335 L 112.488202 150.081000 L 113.128155 149.264716 L 113.772004 148.451503 L 114.419736 147.641379 L 115.071336 146.834362 L 115.726788 146.030471 L 116.386078 145.229725 L 117.049190 144.432141 L 117.716110 143.637738 L 118.386822 142.846534 L 119.061310 142.058547 L 119.739560 141.273796 L 120.421556 140.492297 L 121.107282 139.714070 L 121.796723 138.939132 L 122.489862 138.167500 L 123.186685 137.399192 L 123.887174 136.634226 L 124.591314 135.872620 L 125.299090 135.114390 L 126.010483 134.359554 L 126.725479 133.608130 L 127.444062 132.860134 L 128.166213 132.115584 L 128.891918 131.374497 L 129.621159 130.636889 L 130.353920 129.902778 L 110.089276 109.578423 L 109.259532 110.409696 L 108.433773 111.244928 L 107.612020 112.084101 L 106.794289 112.927195 L 105.980600 113.774190 L 105.170972 114.625067 L 104.365423 115.479808 L 103.563972 116.338391 L 102.766637 117.200799 L 101.973436 118.067010 L 101.184387 118.937005 L 100.399508 119.810765 L 99.618818 120.688269 L 98.842334 121.569497 L 98.070074 122.454429 L 97.302056 123.343044 L 96.538296 124.235324 L 95.778814 125.131246 L 95.023625 126.030790 L 94.272748 126.933937 L 93.526199 127.840664 L 92.783996 128.750952 L 92.046156 129.664780 L 91.312695 130.582127 L 90.583630 131.502971 L 89.858978 132.427292 L 89.138755 133.355069 L 88.422978 134.286280 L 87.711664 135.220904 L 87.004828 136.158920 L 86.302487 137.100306 L 85.604657 138.045040 L 84.911354 138.993102 L 84.222594 139.944469 L 83.538391 140.899119 L 82.858763 141.857031 L 82.183725 142.818183 L 81.513292 143.782553 L 80.847479 144.750119 L 80.186301 145.720858 L 79.529775 146.694749 L 78.877914 147.671769 L 78.230734 148.651895 L 77.588250 149.635106 L 76.950476 150.621379 L 76.317426 151.610691 L 75.689116 152.603020 L 75.065559 153.598343 L 74.446771 154.596637 L 73.832764 155.597879 L 73.223554 156.602047 L 72.619154 157.609117 L 72.019577 158.619067 L 71.424839 159.631873 L 70.834951 160.647512 L 70.249928 161.665961 L 69.669784 162.687196 Z " style="stroke: rgb(0%,0%,100%); stroke-linecap: butt; stroke-width: 1; fill: rgb(0%,0%,100%);"/>
			<path d="M 73.787624 338.778876 L 73.204019 336.517327 L 72.644807 334.249623 L 72.110051 331.976028 L 71.599814 329.696804 L 71.114156 327.412218 L 70.653131 325.122533 L 70.216795 322.828016 L 69.805198 320.528932 L 69.418386 318.225548 L 69.056406 315.918131 L 68.719299 313.606950 L 68.407105 311.292272 L 68.119859 308.974366 L 67.857594 306.653500 L 67.620342 304.329944 L 67.408130 302.003968 L 67.220982 299.675841 L 67.058921 297.345833 L 66.921964 295.014215 L 66.810128 292.681257 L 66.723426 290.347230 L 66.661868 288.012405 L 66.625460 285.677052 L 66.614208 283.341442 L 66.628113 281.005846 L 66.667172 278.670536 L 66.731381 276.335782 L 66.820734 274.001855 L 66.935219 271.669025 L 67.074824 269.337564 L 67.239531 267.007742 L 67.429322 264.679829 L 67.644176 262.354095 L 67.884066 260.030810 L 68.148966 257.710244 L 68.438844 255.392665 L 68.753667 253.078343 L 69.093398 250.767546 L 69.457998 248.460543 L 69.847425 246.157599 L 70.261633 243.858984 L 70.700574 241.564964 L 71.164198 239.275804 L 71.652451 236.991770 L 72.165276 234.713128 L 72.702613 232.440141 L 73.264400 230.173074 L 73.850573 227.912189 L 74.461062 225.657748 L 75.095798 223.410014 L 75.754706 221.169246 L 76.437711 218.935705 L 77.144732 216.709650 L 77.875688 214.491339 L 78.630494 212.281030 L 79.409063 210.078979 L 80.211304 207.885441 L 53.310137 197.882321 L 52.401717 200.366180 L 51.520102 202.859680 L 50.665395 205.362530 L 49.837695 207.874441 L 49.037097 210.395121 L 48.263695 212.924277 L 47.517579 215.461617 L 46.798834 218.006846 L 46.107544 220.559668 L 45.443790 223.119788 L 44.807648 225.686909 L 44.199193 228.260732 L 43.618495 230.840959 L 43.065620 233.427291 L 42.540634 236.019428 L 42.043598 238.617069 L 41.574568 241.219913 L 41.133599 243.827657 L 40.720743 246.440000 L 40.336048 249.056637 L 39.979557 251.677267 L 39.651313 254.301584 L 39.351353 256.929284 L 39.079712 259.560062 L 38.836422 262.193614 L 38.621512 264.829633 L 38.435005 267.467814 L 38.276923 270.107851 L 38.147286 272.749437 L 38.046107 275.392266 L 37.973399 278.036032 L 37.929170 280.680427 L 37.913425 283.325146 L 37.926167 285.969880 L 37.967393 288.614324 L 38.037098 291.258171 L 38.135276 293.901113 L 38.261914 296.542845 L 38.416997 299.183060 L 38.600508 301.821451 L 38.812425 304.457712 L 39.052724 307.091538 L 39.321377 309.722624 L 39.618353 312.350663 L 39.943617 314.975351 L 40.297131 317.596383 L 40.678855 320.213456 L 41.088745 322.826266 L 41.526752 325.434509 L 41.992825 328.037884 L 42.486912 330.636087 L 43.008954 333.228819 L 43.558891 335.815777 L 44.136659 338.396662 L 44.742191 340.971175 L 45.375417 343.539016 L 46.036264 346.099888 Z " style="stroke: rgb(67%,84%,90%); stroke-linecap: butt; stroke-width: 1; fill: rgb(67%,84%,90%);"/>
			<path d="M 125.641119 385.895196 L 125.289576 385.351497 L 124.939905 384.806592 L 124.592112 384.260487 L 124.246200 383.713188 L 123.902174 383.164702 L 123.560037 382.615036 L 123.219793 382.064195 L 122.881447 381.512187 L 122.545002 380.959018 L 122.210463 380.404695 L 121.877834 379.849223 L 121.547117 379.292610 L 121.218319 378.734863 L 120.891441 378.175987 L 120.566489 377.615990 L 120.243465 377.054878 L 119.922374 376.492657 L 119.603220 375.929335 L 119.286006 375.364918 L 118.970737 374.799413 L 118.657415 374.232827 L 118.346045 373.665165 L 118.036630 373.096436 L 117.729173 372.526645 L 117.423680 371.955799 L 117.120152 371.383906 L 116.818595 370.810971 L 116.519010 370.237002 L 116.221403 369.662006 L 115.925776 369.085989 L 115.632133 368.508958 L 115.340477 367.930920 L 115.050812 367.351882 L 114.763142 366.771850 L 114.477469 366.190832 L 114.193797 365.608834 L 113.912129 365.025864 L 113.632469 364.441928 L 113.354821 363.857033 L 113.079186 363.271186 L 112.805570 362.684394 L 112.533974 362.096664 L 112.264402 361.508002 L 111.996857 360.918417 L 111.731343 360.327915 L 111.467863 359.736502 L 111.206419 359.144186 L 110.947015 358.550974 L 110.689653 357.956873 L 110.434338 357.361889 L 110.181072 356.766031 L 109.929857 356.169305 L 109.680698 355.571718 L 109.433596 354.973276 L 109.188555 354.373989 L 108.945578 353.773861 L 108.704667 353.172901 L 82.046377 363.806376 L 82.324037 364.499008 L 82.604079 365.190680 L 82.886499 365.881385 L 83.171294 366.571113 L 83.458461 367.259858 L 83.747996 367.947610 L 84.039896 368.634362 L 84.334158 369.320106 L 84.630778 370.004833 L 84.929752 370.688535 L 85.231077 371.371204 L 85.534750 372.052832 L 85.840766 372.733411 L 86.149122 373.412933 L 86.459815 374.091390 L 86.772841 374.768774 L 87.088196 375.445077 L 87.405876 376.120290 L 87.725878 376.794407 L 88.048198 377.467418 L 88.372832 378.139316 L 88.699776 378.810093 L 89.029026 379.479741 L 89.360578 380.148252 L 89.694430 380.815618 L 90.030575 381.481831 L 90.369011 382.146884 L 90.709734 382.810768 L 91.052739 383.473475 L 91.398023 384.134999 L 91.745581 384.795330 L 92.095409 385.454462 L 92.447503 386.112385 L 92.801859 386.769094 L 93.158473 387.424578 L 93.517341 388.078832 L 93.878458 388.731848 L 94.241819 389.383616 L 94.607422 390.034130 L 94.975260 390.683383 L 95.345331 391.331366 L 95.717629 391.978071 L 96.092151 392.623492 L 96.468891 393.267620 L 96.847845 393.910447 L 97.229010 394.551967 L 97.612379 395.192172 L 97.997950 395.831053 L 98.385717 396.468604 L 98.775675 397.104817 L 99.167820 397.739684 L 99.562148 398.373198 L 99.958653 399.005351 L 100.357331 399.636136 L 100.758177 400.265545 L 101.161187 400.893571 L 101.566356 401.520207 Z " style="stroke: rgb(0%,0%,100%); stroke-linecap: butt; stroke-width: 1; fill: rgb(0%,0%,100%);"/>
			<path d="M 146.250474 412.199050 L 145.848023 411.768741 L 145.446921 411.337175 L 145.047173 410.904355 L 144.648782 410.470285 L 144.251753 410.034969 L 143.856088 409.598412 L 143.461792 409.160619 L 143.068870 408.721593 L 142.677324 408.281339 L 142.287158 407.839860 L 141.898377 407.397163 L 141.510984 406.953249 L 141.124983 406.508125 L 140.740378 406.061795 L 140.357172 405.614262 L 139.975370 405.165531 L 139.594975 404.715607 L 139.215990 404.264495 L 138.838420 403.812197 L 138.462269 403.358719 L 138.087539 402.904066 L 137.714234 402.448242 L 137.342359 401.991250 L 136.971917 401.533097 L 136.602911 401.073786 L 136.235345 400.613321 L 135.869223 400.151708 L 135.504549 399.688950 L 135.141325 399.225053 L 134.779555 398.760021 L 134.419244 398.293858 L 134.060394 397.826569 L 133.703009 397.358159 L 133.347093 396.888632 L 132.992649 396.417992 L 132.639680 395.946245 L 132.288191 395.473395 L 131.938183 394.999447 L 131.589662 394.524405 L 131.242630 394.048274 L 130.897090 393.571058 L 130.553047 393.092763 L 130.210503 392.613393 L 129.869462 392.132952 L 129.529927 391.651446 L 129.191901 391.168879 L 128.855388 390.685256 L 128.520392 390.200582 L 128.186914 389.714861 L 127.854960 389.228098 L 127.524531 388.740298 L 127.195631 388.251465 L 126.868264 387.761605 L 126.542432 387.270723 L 126.218139 386.778822 L 125.895388 386.285908 L 125.574182 385.791986 L 101.489208 401.401254 L 101.859412 401.970520 L 102.231396 402.538624 L 102.605157 403.105560 L 102.980692 403.671323 L 103.357997 404.235907 L 103.737068 404.799307 L 104.117901 405.361518 L 104.500493 405.922533 L 104.884839 406.482347 L 105.270937 407.040955 L 105.658783 407.598351 L 106.048371 408.154530 L 106.439700 408.709486 L 106.832764 409.263214 L 107.227561 409.815708 L 107.624085 410.366964 L 108.022334 410.916975 L 108.422303 411.465736 L 108.823989 412.013242 L 109.227387 412.559488 L 109.632494 413.104467 L 110.039306 413.648176 L 110.447818 414.190607 L 110.858026 414.731757 L 111.269927 415.271620 L 111.683517 415.810190 L 112.098791 416.347463 L 112.515745 416.883432 L 112.934376 417.418094 L 113.354679 417.951441 L 113.776650 418.483470 L 114.200285 419.014175 L 114.625580 419.543551 L 115.052531 420.071592 L 115.481133 420.598294 L 115.911382 421.123651 L 116.343274 421.647658 L 116.776805 422.170310 L 117.211970 422.691602 L 117.648766 423.211529 L 118.087188 423.730085 L 118.527231 424.247266 L 118.968892 424.763067 L 119.412165 425.277482 L 119.857048 425.790506 L 120.303535 426.302135 L 120.751621 426.812363 L 121.201304 427.321185 L 121.652577 427.828597 L 122.105437 428.334593 L 122.559879 428.839169 L 123.015900 429.342319 L 123.473493 429.844038 L 123.932656 430.344322 L 124.393382 430.843166 L 124.855669 431.340565 L 125.319511 431.836513 Z " style="stroke: rgb(67%,84%,90%); stroke-linecap: butt; stroke-width: 1; fill: rgb(67%,84%,90%);"/>
			<circle cx="283.46456692913387" cy="283.46456692913387" r="216.85039370078738" style="stroke: rgb(0%,0%,0%); stroke-linecap: butt; stroke-width: 1; fill: none;"/>
			<g transform=" matrix(0.663198,0.748444,-0.748444,0.663198,446.313606,467.245886)">
				<text style="font-family: Helvetica; font-size: 6px; fill: rgb(0%,0%,0%);" transform="translate(0,0) scale(1,-1)" x="0" y="0"> YP_pPCP01 </text>
			</g>
			<g transform=" matrix(0.943953,0.330081,-0.330081,0.943953,515.253272,364.516271)">
				<text style="font-family: Helvetica; font-size: 6px; fill: rgb(0%,0%,0%);" transform="translate(0,0) scale(1,-1)" x="0" y="0"> YP_pPCP02 </text>
			</g>
			<g transform=" matrix(0.892265,-0.451513,0.451513,0.892265,502.561193,172.595044)">
				<text style="font-family: Helvetica; font-size: 6px; fill: rgb(0%,0%,0%);" transform="translate(0,0) scale(1,-1)" x="0" y="0"> rop </text>
			</g>
			<g transform=" matrix(0.580888,-0.813984,0.813984,0.580888,426.102243,83.589916)">
				<text style="font-family: Helvetica; font-size: 6px; fill: rgb(0%,0%,0%);" transform="translate(0,0) scale(1,-1)" x="0" y="0"> YP_pPCP04 </text>
			</g>
			<g transform=" matrix(0.016345,-0.999866,0.999866,0.016345,287.478029,37.946187)">
				<text style="font-family: Helvetica; font-size: 6px; fill: rgb(0%,0%,0%);" transform="translate(0,0) scale(1,-1)" x="0" y="0"> pim </text>
			</g>
			<g transform=" matrix(0.005884,0.999983,-0.999983,0.005884,282.357434,95.318218)">
				<text style="font-family: Helvetica; font-size: 6px; fill: rgb(0%,0%,0%);" transform="translate(0,0) scale(1,-1)" x="0" y="0"> pst </text>
			</g>
			<g transform=" matrix(0.706066,0.708146,-0.708146,0.706066,110.089276,109.578423)">
				<text style="font-family: Helvetica; font-size: 6px; fill: rgb(0%,0%,0%);" transform="translate(0,0) scale(1,-1)" x="-37.019999999999996" y="0"> YP_pPCP07 </text>
			</g>
			<g transform=" matrix(0.937297,0.348531,-0.348531,0.937297,53.310137,197.882321)">
				<text style="font-family: Helvetica; font-size: 6px; fill: rgb(0%,0%,0%);" transform="translate(0,0) scale(1,-1)" x="-11.34" y="0"> pla </text>
			</g>
			<g transform=" matrix(0.928835,-0.370494,0.370494,0.928835,108.704667,353.172901)">
				<text style="font-family: Helvetica; font-size: 6px; fill: rgb(0%,0%,0%);" transform="translate(0,0) scale(1,-1)" x="0" y="0"> YP_pPCP09 </text>
			</g>
			<g transform=" matrix(0.839175,-0.543862,0.543862,0.839175,125.574182,385.791986)">
				<text style="font-family: Helvetica; font-size: 6px; fill: rgb(0%,0%,0%);" transform="translate(0,0) scale(1,-1)" x="0" y="0"> YP_pPCP10 </text>
			</g>
		</g>
	</g>
</svg>
